<svg width="20" height="20" viewBox="0 0 20 20" fill="none" xmlns="http://www.w3.org/2000/svg">
<path d="M2.37167 5.29999C2.39667 5.05416 2.3025 4.81166 2.11917 4.64666L0.2525 2.39665V2.06082H6.05L10.5317 11.89L14.4717 2.06082H20V2.39665L18.4025 3.92749C18.265 4.03249 18.1967 4.20499 18.225 4.37582V15.6258C18.1967 15.7958 18.265 15.9675 18.4025 16.0733L19.9608 17.6042V17.94H12.1192V17.6042L13.7333 16.0358C13.8917 15.8775 13.8917 15.8308 13.8917 15.5875V6.49499L9.4 17.9017H8.79417L3.565 6.49499V14.14C3.52167 14.4617 3.62833 14.785 3.85417 15.0175L5.95417 17.5675V17.9025H0V17.5667L2.1 15.0167C2.325 14.785 2.425 14.4583 2.37167 14.14V5.29999Z" fill="black" fill-opacity="0.9"/>
</svg>
