<svg width="15" height="15" viewBox="0 0 15 15" fill="none" xmlns="http://www.w3.org/2000/svg">
<path d="M14.6853 3.87814C14.5984 3.56674 14.4326 3.28303 14.204 3.05442C13.9754 2.82582 13.6917 2.66005 13.3803 2.57314C12.2115 2.26002 7.50779 2.26002 7.50779 2.26002C7.50779 2.26002 2.81592 2.25377 1.63529 2.57314C1.32389 2.66005 1.04018 2.82582 0.811572 3.05442C0.582966 3.28303 0.417198 3.56674 0.330291 3.87814C0.108742 5.07471 -0.000483412 6.28937 0.00404125 7.50627C0.000371952 8.71858 0.109593 9.92859 0.330291 11.1206C0.417198 11.432 0.582966 11.7158 0.811572 11.9444C1.04018 12.173 1.32389 12.3387 1.63529 12.4256C2.80279 12.7394 7.50779 12.7394 7.50779 12.7394C7.50779 12.7394 12.199 12.7394 13.3803 12.4256C13.6917 12.3387 13.9754 12.173 14.204 11.9444C14.4326 11.7158 14.5984 11.432 14.6853 11.1206C14.9014 9.92816 15.006 8.71815 14.9978 7.50627C15.0069 6.2898 14.9022 5.07515 14.6853 3.87814V3.87814ZM6.00654 9.75064V5.25502L9.92154 7.50627L6.00654 9.75064Z" fill="#1B1B1B"/>
</svg>
